# File created by Blade
# Date/Time:  Thu Sep 25 18:39:44 2014
# Frame Rate: 120.000 fps
#------------------------------------------------------
:FULLY-SPECIFIED
:DEGREES
734
root -1.063650 33.150927 -2.012977 7.858910 8.868797 -0.503287
Spine -13.673099 4.925819 -0.987354
Head 6.402251 -17.162011 4.532256
LeftShoulder -11.650739 -6.321709 47.619144
LeftArm 95.387860 -72.145788 -82.005563
LeftForeArm -34.673901 -0.000000 113.741941
LeftHand -26.291968 -0.000000 4.865688
LeftHandThumb1 -26.253704 0.000000 33.147579
RightShoulder -125.894187 34.787336 -204.341579
RightArm -13.252786 2.515607 58.846096
RightForeArm 38.621177 -0.000000 156.991974
RightHand 7.801015 0.000000 27.882432
RightHandThumb1 -24.326973 -0.000000 -32.862282
LeftUpLeg -0.973252 3.276689 2.466575
LeftLeg -1.733371 -0.000000 0.000000
LeftFoot -7.294801 -0.619659 -11.073330
LeftToeBase 9.918395 -0.000000 -0.000000
RightUpLeg -0.673550 -9.645101 0.810812
RightLeg 0.715145 -0.000000 -0.000000
RightFoot -7.493758 -4.096930 1.108142
RightToeBase -0.745622 -0.000000 0.000000
735
root -1.063712 33.151000 -2.013780 7.855462 8.870871 -0.502998
Spine -13.668177 4.912900 -0.990182
Head 6.414690 -17.169347 4.547278
LeftShoulder -11.657021 -6.289682 47.630801
LeftArm 95.470469 -72.141543 -82.099585
LeftForeArm -34.669821 -0.000000 113.754100
LeftHand -26.285352 -0.000000 4.885292
LeftHandThumb1 -26.253704 0.000000 33.147579
RightShoulder -125.954288 34.722199 -204.409983
RightArm -13.313596 2.455419 58.900468
RightForeArm 38.611033 -0.000000 156.979829
RightHand 7.797029 -0.000000 27.879280
RightHandThumb1 -24.326973 -0.000000 -32.862282
LeftUpLeg -0.972665 3.298248 2.465263
LeftLeg -1.729996 -0.000000 0.000000
LeftFoot -7.292555 -0.630023 -11.072114
LeftToeBase 9.887164 -0.000000 -0.000000
RightUpLeg -0.673740 -9.631837 0.809636
RightLeg 0.721943 -0.000000 -0.000000
RightFoot -7.498568 -4.108545 1.113994
RightToeBase -0.715562 -0.000000 0.000000
736
root -1.062074 33.151045 -2.014885 7.848764 8.872545 -0.499359
Spine -13.657315 4.917395 -0.990200
Head 6.427761 -17.185174 4.544147
LeftShoulder -11.645502 -6.330157 47.647957
LeftArm 95.363843 -72.144334 -82.014170
LeftForeArm -34.670076 -0.000000 113.768164
LeftHand -26.299839 -0.000000 4.901939
LeftHandThumb1 -26.253704 0.000000 33.147579
RightShoulder -125.939343 34.777272 -204.364152
RightArm -13.305346 2.400286 58.967824
RightForeArm 38.522293 -0.000000 156.983148
RightHand 7.888758 -0.000000 27.680838
RightHandThumb1 -24.326973 -0.000000 -32.862282
LeftUpLeg -0.968374 3.301694 2.453864
LeftLeg -1.721978 -0.000000 0.000000
LeftFoot -7.291782 -0.613709 -11.080203
LeftToeBase 9.841540 -0.000000 -0.000000
RightUpLeg -0.674265 -9.617454 0.804907
RightLeg 0.734153 -0.000000 -0.000000
RightFoot -7.503599 -4.138008 1.118728
RightToeBase -0.696413 -0.000000 0.000000
737
root -1.063926 33.151076 -2.015487 7.837155 8.872609 -0.510106
Spine -13.644476 4.893841 -0.977200
Head 6.442693 -17.196423 4.546148
LeftShoulder -11.656592 -6.302900 47.659634
LeftArm 95.409914 -72.142745 -82.069777
LeftForeArm -34.679096 -0.000000 113.772447
LeftHand -26.287212 -0.000000 4.895048
LeftHandThumb1 -26.253704 0.000000 33.147579
RightShoulder -125.938700 34.846708 -204.226838
RightArm -13.116810 2.378924 58.999509
RightForeArm 38.466479 -0.000000 156.955357
RightHand 7.897412 -0.000000 27.632235
RightHandThumb1 -24.326973 -0.000000 -32.862282
LeftUpLeg -0.958960 3.323067 2.472296
LeftLeg -1.732314 -0.000000 0.000000
LeftFoot -7.285634 -0.661730 -11.058314
LeftToeBase 9.931433 -0.000000 -0.000000
RightUpLeg -0.659880 -9.625954 0.814138
RightLeg 0.721818 -0.000000 -0.000000
RightFoot -7.492443 -4.108867 1.121192
RightToeBase -0.720584 -0.000000 0.000000
738
root -1.064295 33.151301 -2.016575 7.836742 8.872570 -0.514559
Spine -13.640260 4.886014 -0.972174
Head 6.436733 -17.227764 4.544150
LeftShoulder -11.663770 -6.311861 47.667208
LeftArm 95.377901 -72.139964 -82.040750
LeftForeArm -34.679723 -0.000000 113.768798
LeftHand -26.288710 -0.000000 4.854073
LeftHandThumb1 -26.253704 0.000000 33.147579
RightShoulder -125.911736 34.868352 -204.190333
RightArm -13.088194 2.415510 58.998974
RightForeArm 38.468330 -0.000000 156.962253
RightHand 7.870390 0.000000 27.633294
RightHandThumb1 -24.326973 -0.000000 -32.862282
LeftUpLeg -0.960314 3.319762 2.477700
LeftLeg -1.732711 -0.000000 0.000000
LeftFoot -7.287521 -0.654679 -11.066468
LeftToeBase 9.896911 -0.000000 -0.000000
RightUpLeg -0.662841 -9.623611 0.818586
RightLeg 0.721591 -0.000000 -0.000000
RightFoot -7.484131 -4.109414 1.123409
RightToeBase -0.739172 -0.000000 0.000000
739
root -1.064126 33.151417 -2.017657 7.829893 8.870600 -0.515680
Spine -13.629464 4.886503 -0.966179
Head 6.436787 -17.256507 4.542539
LeftShoulder -11.663595 -6.342270 47.670579
LeftArm 95.244505 -72.142747 -81.914981
LeftForeArm -34.689866 -0.000000 113.768486
LeftHand -26.250345 0.000000 4.883077
LeftHandThumb1 -26.253704 0.000000 33.147579
RightShoulder -125.921169 34.883367 -204.148958
RightArm -13.016077 2.376523 59.011067
RightForeArm 38.448015 0.000000 156.934112
RightHand 7.861106 -0.000000 27.622247
RightHandThumb1 -24.326973 -0.000000 -32.862282
LeftUpLeg -0.958642 3.328087 2.477443
LeftLeg -1.727164 -0.000000 0.000000
LeftFoot -7.286770 -0.658460 -11.069806
LeftToeBase 9.917579 -0.000000 -0.000000
RightUpLeg -0.660583 -9.616783 0.818164
RightLeg 0.727702 -0.000000 -0.000000
RightFoot -7.481634 -4.121815 1.111320
RightToeBase -0.758579 -0.000000 0.000000
740
root -1.063153 33.151552 -2.018743 7.826694 8.869849 -0.513087
Spine -13.622930 4.871119 -0.962164
Head 6.444053 -17.279969 4.546091
LeftShoulder -11.673390 -6.369008 47.673473
LeftArm 95.131494 -72.142224 -81.801633
LeftForeArm -34.697412 0.000000 113.762431
LeftHand -26.265476 -0.000000 4.847633
LeftHandThumb1 -26.253704 0.000000 33.147579
RightShoulder -125.940060 34.903096 -204.118005
RightArm -12.944243 2.349759 59.022170
RightForeArm 38.388337 0.000000 156.921324
RightHand 8.025014 -0.000000 27.783565
RightHandThumb1 -24.326973 -0.000000 -32.862282
LeftUpLeg -0.956504 3.316620 2.473698
LeftLeg -1.726422 -0.000000 0.000000
LeftFoot -7.286940 -0.653071 -11.061611
LeftToeBase 9.886016 -0.000000 -0.000000
RightUpLeg -0.660125 -9.616235 0.812866
RightLeg 0.731502 -0.000000 -0.000000
RightFoot -7.492839 -4.120982 1.142891
RightToeBase -0.714082 -0.000000 0.000000
741
root -1.061401 33.151672 -2.019352 7.822599 8.860227 -0.504451
Spine -13.617387 4.872755 -0.970948
Head 6.461351 -17.295858 4.563048
LeftShoulder -11.688111 -6.299595 47.665861
LeftArm 95.337226 -72.131451 -82.000366
LeftForeArm -34.704622 0.000000 113.757885
LeftHand -26.258995 0.000000 4.850792
LeftHandThumb1 -26.253704 0.000000 33.147579
RightShoulder -125.919163 34.941869 -204.069676
RightArm -12.895332 2.390172 58.994111
RightForeArm 38.413183 -0.000000 156.926688
RightHand 8.010044 -0.000000 27.799217
RightHandThumb1 -24.326973 -0.000000 -32.862282
LeftUpLeg -0.951153 3.327484 2.459652
LeftLeg -1.726547 -0.000000 0.000000
LeftFoot -7.280734 -0.641633 -11.061340
LeftToeBase 9.890654 -0.000000 -0.000000
RightUpLeg -0.664282 -9.603351 0.803668
RightLeg 0.746571 -0.000000 -0.000000
RightFoot -7.496641 -4.151812 1.104632
RightToeBase -0.727373 -0.000000 0.000000
742
root -1.060804 33.152042 -2.021193 7.820487 8.861461 -0.497547
Spine -13.613020 4.866975 -0.971188
Head 6.483674 -17.322591 4.561324
LeftShoulder -11.686614 -6.287398 47.643375
LeftArm 95.392610 -72.127967 -82.036491
LeftForeArm -34.728457 -0.000000 113.748135
LeftHand -26.244010 0.000000 4.844888
LeftHandThumb1 -26.253704 0.000000 33.147579
RightShoulder -125.945937 34.955684 -204.036711
RightArm -12.807535 2.334623 59.024774
RightForeArm 38.393199 -0.000000 156.891090
RightHand 8.005548 -0.000000 27.772171
RightHandThumb1 -24.326973 -0.000000 -32.862282
LeftUpLeg -0.956212 3.290451 2.448057
LeftLeg -1.706502 -0.000000 0.000000
LeftFoot -7.292774 -0.588839 -11.090455
LeftToeBase 9.876347 -0.000000 -0.000000
RightUpLeg -0.661964 -9.586998 0.795710
RightLeg 0.744957 -0.000000 -0.000000
RightFoot -7.501410 -4.173662 1.073256
RightToeBase -0.684891 -0.000000 0.000000
743
root -1.061081 33.151869 -2.022600 7.819023 8.853205 -0.502102
Spine -13.612262 4.890219 -0.974889
Head 6.501721 -17.375568 4.598678
LeftShoulder -11.679913 -6.312317 47.636944
LeftArm 95.370096 -72.115503 -81.985227
LeftForeArm -34.736132 -0.000000 113.712865
LeftHand -26.180554 -0.000000 4.777155
LeftHandThumb1 -26.253704 0.000000 33.147579
RightShoulder -125.944556 34.977295 -203.992491
RightArm -12.741440 2.312466 59.021319
RightForeArm 38.388901 0.000000 156.874176
RightHand 8.010931 -0.000000 27.754626
RightHandThumb1 -24.326973 -0.000000 -32.862282
LeftUpLeg -0.958669 3.312140 2.455394
LeftLeg -1.710313 -0.000000 0.000000
LeftFoot -7.289116 -0.624119 -11.066051
LeftToeBase 9.873032 -0.000000 -0.000000
RightUpLeg -0.665890 -9.579150 0.799668
RightLeg 0.747679 -0.000000 -0.000000
RightFoot -7.495825 -4.167919 1.087823
RightToeBase -0.712432 -0.000000 0.000000
744
root -1.061293 33.152166 -2.023252 7.814365 8.844533 -0.501614
Spine -13.611962 4.874623 -0.970793
Head 6.541804 -17.385514 4.613018
LeftShoulder -11.692648 -6.259673 47.639849
LeftArm 95.450641 -72.117696 -82.070957
LeftForeArm -34.729502 -0.000000 113.717335
LeftHand -26.173898 -0.000000 4.781400
LeftHandThumb1 -26.253704 0.000000 33.147579
RightShoulder -125.979908 34.983481 -203.981706
RightArm -12.695094 2.276066 59.042430
RightForeArm 38.363376 -0.000000 156.857014
RightHand 8.012529 -0.000000 27.734916
RightHandThumb1 -24.326973 -0.000000 -32.862282
LeftUpLeg -0.953725 3.310427 2.451529
LeftLeg -1.704309 -0.000000 0.000000
LeftFoot -7.296793 -0.598499 -11.071562
LeftToeBase 9.886867 -0.000000 -0.000000
RightUpLeg -0.666571 -9.579611 0.794658
RightLeg 0.755697 -0.000000 -0.000000
RightFoot -7.493299 -4.148221 1.107556
RightToeBase -0.739947 -0.000000 0.000000
